<svg id="SvgjsSvg1069" width="288" height="288" xmlns="http://www.w3.org/2000/svg" version="1.1" xmlns:xlink="http://www.w3.org/1999/xlink" xmlns:svgjs="http://svgjs.com/svgjs"><defs id="SvgjsDefs1070"></defs><g id="SvgjsG1071"><svg xmlns="http://www.w3.org/2000/svg" enable-background="new 0 0 60 60" viewBox="0 0 60 60" width="288" height="288"><path d="M57.348,0.793H12.652C11.189,0.793,10,1.983,10,3.446v9.347H2.652C1.189,12.793,0,13.983,0,15.446v43.761l9.414-9.414
		h34.934c1.463,0,2.652-1.189,2.652-2.652v-6.348h3.586L60,50.207V3.446C60,1.983,58.811,0.793,57.348,0.793z M45,47.141
		c0,0.359-0.293,0.652-0.652,0.652H8.586L2,54.379V15.446c0-0.36,0.293-0.653,0.652-0.653H10h34.348
		c0.359,0,0.652,0.293,0.652,0.653v25.347V47.141z M58,45.379l-6.586-6.586H47V15.446c0-1.463-1.189-2.653-2.652-2.653H12V3.446
		c0-0.36,0.293-0.653,0.652-0.653h44.695C57.707,2.793,58,3.086,58,3.446V45.379z" fill="#1b70d1" class="color000 svgShape"></path><path d="M10 27.777c-2.206 0-4 1.794-4 4s1.794 4 4 4 4-1.794 4-4S12.206 27.777 10 27.777zM10 33.777c-1.103 0-2-.897-2-2s.897-2 2-2 2 .897 2 2S11.103 33.777 10 33.777zM23 27.777c-2.206 0-4 1.794-4 4s1.794 4 4 4 4-1.794 4-4S25.206 27.777 23 27.777zM23 33.777c-1.103 0-2-.897-2-2s.897-2 2-2 2 .897 2 2S24.103 33.777 23 33.777zM36 27.777c-2.206 0-4 1.794-4 4s1.794 4 4 4 4-1.794 4-4S38.206 27.777 36 27.777zM36 33.777c-1.103 0-2-.897-2-2s.897-2 2-2 2 .897 2 2S37.103 33.777 36 33.777z" fill="#1b70d1" class="color000 svgShape"></path></svg></g></svg>