<svg id="SvgjsSvg1061" width="288" height="288" xmlns="http://www.w3.org/2000/svg" version="1.1" xmlns:xlink="http://www.w3.org/1999/xlink" xmlns:svgjs="http://svgjs.com/svgjs"><defs id="SvgjsDefs1062"></defs><g id="SvgjsG1063"><svg xmlns="http://www.w3.org/2000/svg" enable-background="new 0 0 490 490" viewBox="0 0 490 490" width="288" height="288"><circle cx="157.651" cy="175.289" r="42.642" fill="#1b70d1" class="color000 svgShape"></circle><circle cx="332.349" cy="175.289" r="42.642" fill="#1b70d1" class="color000 svgShape"></circle><path d="M119.375,325.465c0.837,0.613,56.644,41.466,130.53,41.466c37.205,0,79.015-10.363,120.691-41.452l-18.303-24.554
		c-105.857,78.955-210.188,3.26-214.584,0L119.375,325.465z" fill="#1b70d1" class="color000 svgShape"></path><path d="M69.086,490h351.829C459.001,490,490,459.001,490,420.914V69.086C490,30.991,459.001,0,420.914,0H69.086
		C30.999,0,0,30.991,0,69.086v351.829C0,459.001,30.999,490,69.086,490z M30.625,69.086c0-21.204,17.257-38.461,38.461-38.461
		h351.829c21.204,0,38.461,17.257,38.461,38.461v351.829c0,21.204-17.257,38.461-38.461,38.461H69.086
		c-21.204,0-38.461-17.257-38.461-38.461V69.086z" fill="#1b70d1" class="color000 svgShape"></path></svg></g></svg>