<?xml version="1.0" encoding="iso-8859-1"?>
<!-- Generator: Adobe Illustrator 19.0.0, SVG Export Plug-In . SVG Version: 6.00 Build 0)  -->
<svg version="1.1" id="Capa_1" xmlns="http://www.w3.org/2000/svg" xmlns:xlink="http://www.w3.org/1999/xlink" x="0px" y="0px"
	 viewBox="0 0 197.973 197.973" style="enable-background:new 0 0 197.973 197.973;" xml:space="preserve">
<g>
	<g>
		<path d="M181.395,0H16.579C7.436,0,0,7.436,0,16.579v164.816c0,9.143,7.438,16.579,16.579,16.579h164.816
			c9.143,0,16.579-7.436,16.579-16.579V16.579C197.973,7.436,190.536,0,181.395,0z M191.147,181.395
			c0,5.378-4.376,9.752-9.752,9.752H16.579c-5.378,0-9.752-4.376-9.752-9.752V16.579c0-5.378,4.374-9.752,9.752-9.752h164.816
			c5.378,0,9.752,4.376,9.752,9.752V181.395z"/>
	</g>
</g>
<g>
	<g>
		<path d="M143.36,23.893c-16.939,0-30.72,13.781-30.72,30.72c0,16.939,13.781,30.72,30.72,30.72s30.72-13.781,30.72-30.72
			C174.08,37.675,160.299,23.893,143.36,23.893z M143.36,78.507c-13.175,0-23.893-10.718-23.893-23.893
			c0-13.175,10.718-23.893,23.893-23.893s23.893,10.718,23.893,23.893C167.253,67.789,156.535,78.507,143.36,78.507z"/>
	</g>
</g>
<g>
	<g>
		<path d="M170.667,116.053h-54.613c-1.884,0-3.413,1.529-3.413,3.413v54.613c0,1.884,1.529,3.413,3.413,3.413h54.613
			c1.884,0,3.413-1.529,3.413-3.413v-54.613C174.08,117.582,172.551,116.053,170.667,116.053z M167.253,170.667h-47.787V122.88
			h47.787V170.667z"/>
	</g>
</g>
<g>
	<g>
		<path d="M79.213,77.8L29.72,28.307c-1.333-1.333-3.494-1.333-4.826,0c-1.333,1.333-1.333,3.494,0,4.826l49.493,49.493
			c0.667,0.667,1.539,1,2.413,1c0.874,0,1.746-0.333,2.413-1C80.546,81.294,80.546,79.133,79.213,77.8z"/>
	</g>
</g>
<g>
	<g>
		<path d="M79.213,28.307c-1.333-1.333-3.494-1.333-4.826,0L24.893,77.8c-1.333,1.333-1.333,3.494,0,4.826
			c0.667,0.667,1.539,1,2.413,1s1.746-0.333,2.413-1l49.493-49.493C80.546,31.8,80.546,29.64,79.213,28.307z"/>
	</g>
</g>
<g>
	<g>
		<path d="M91.071,172.373l-33.502-58.027c-0.609-1.056-1.737-1.707-2.956-1.707s-2.347,0.65-2.956,1.707l-33.502,58.027
			c-0.608,1.056-0.608,2.357,0,3.413c0.609,1.056,1.736,1.707,2.956,1.707h67.004c1.22,0,2.347-0.65,2.956-1.707
			C91.679,174.73,91.679,173.43,91.071,172.373z M27.023,170.667l27.59-47.787l27.59,47.787H27.023z"/>
	</g>
</g>
<g>
</g>
<g>
</g>
<g>
</g>
<g>
</g>
<g>
</g>
<g>
</g>
<g>
</g>
<g>
</g>
<g>
</g>
<g>
</g>
<g>
</g>
<g>
</g>
<g>
</g>
<g>
</g>
<g>
</g>
</svg>
