<svg id="SvgjsSvg1029" width="288" height="288" xmlns="http://www.w3.org/2000/svg" version="1.1" xmlns:xlink="http://www.w3.org/1999/xlink" xmlns:svgjs="http://svgjs.com/svgjs"><defs id="SvgjsDefs1030"></defs><g id="SvgjsG1031"><svg xmlns="http://www.w3.org/2000/svg" enable-background="new 0 0 197.973 197.973" viewBox="0 0 197.973 197.973" width="288" height="288"><path d="M181.395,0H16.579C7.436,0,0,7.436,0,16.579v164.816c0,9.143,7.438,16.579,16.579,16.579h164.816
			c9.143,0,16.579-7.436,16.579-16.579V16.579C197.973,7.436,190.536,0,181.395,0z M191.147,181.395
			c0,5.378-4.376,9.752-9.752,9.752H16.579c-5.378,0-9.752-4.376-9.752-9.752V16.579c0-5.378,4.374-9.752,9.752-9.752h164.816
			c5.378,0,9.752,4.376,9.752,9.752V181.395z" fill="#1b70d1" class="color000 svgShape"></path><path d="M143.36 23.893c-16.939 0-30.72 13.781-30.72 30.72 0 16.939 13.781 30.72 30.72 30.72s30.72-13.781 30.72-30.72C174.08 37.675 160.299 23.893 143.36 23.893zM143.36 78.507c-13.175 0-23.893-10.718-23.893-23.893 0-13.175 10.718-23.893 23.893-23.893s23.893 10.718 23.893 23.893C167.253 67.789 156.535 78.507 143.36 78.507zM170.667 116.053h-54.613c-1.884 0-3.413 1.529-3.413 3.413v54.613c0 1.884 1.529 3.413 3.413 3.413h54.613c1.884 0 3.413-1.529 3.413-3.413v-54.613C174.08 117.582 172.551 116.053 170.667 116.053zM167.253 170.667h-47.787V122.88h47.787V170.667zM79.213 77.8L29.72 28.307c-1.333-1.333-3.494-1.333-4.826 0-1.333 1.333-1.333 3.494 0 4.826l49.493 49.493c.667.667 1.539 1 2.413 1 .874 0 1.746-.333 2.413-1C80.546 81.294 80.546 79.133 79.213 77.8z" fill="#1b70d1" class="color000 svgShape"></path><path d="M79.213 28.307c-1.333-1.333-3.494-1.333-4.826 0L24.893 77.8c-1.333 1.333-1.333 3.494 0 4.826.667.667 1.539 1 2.413 1s1.746-.333 2.413-1l49.493-49.493C80.546 31.8 80.546 29.64 79.213 28.307zM91.071 172.373l-33.502-58.027c-.609-1.056-1.737-1.707-2.956-1.707s-2.347.65-2.956 1.707l-33.502 58.027c-.608 1.056-.608 2.357 0 3.413.609 1.056 1.736 1.707 2.956 1.707h67.004c1.22 0 2.347-.65 2.956-1.707C91.679 174.73 91.679 173.43 91.071 172.373zM27.023 170.667l27.59-47.787 27.59 47.787H27.023z" fill="#1b70d1" class="color000 svgShape"></path></svg></g></svg>