<svg id="SvgjsSvg1096" width="288" height="288" xmlns="http://www.w3.org/2000/svg" version="1.1" xmlns:xlink="http://www.w3.org/1999/xlink" xmlns:svgjs="http://svgjs.com/svgjs"><defs id="SvgjsDefs1097"></defs><g id="SvgjsG1098"><svg xmlns="http://www.w3.org/2000/svg" width="288" height="288" enable-background="new 0 0 24 24" viewBox="0 0 24 24"><path d="M7.323 10.5h-2.5c-.414 0-.75-.336-.75-.75s.336-.75.75-.75h2.5c.414 0 .75.336.75.75s-.336.75-.75.75zM19.323 10.5h-7.5c-.414 0-.75-.336-.75-.75s.336-.75.75-.75h7.5c.414 0 .75.336.75.75s-.336.75-.75.75zM7.323 14.5h-2.5c-.414 0-.75-.336-.75-.75s.336-.75.75-.75h2.5c.414 0 .75.336.75.75s-.336.75-.75.75zM19.323 14.5h-7.5c-.414 0-.75-.336-.75-.75s.336-.75.75-.75h7.5c.414 0 .75.336.75.75s-.336.75-.75.75zM7.323 18.5h-2.5c-.414 0-.75-.336-.75-.75s.336-.75.75-.75h2.5c.414 0 .75.336.75.75s-.336.75-.75.75zM19.323 18.5h-7.5c-.414 0-.75-.336-.75-.75s.336-.75.75-.75h7.5c.414 0 .75.336.75.75s-.336.75-.75.75z" fill="#1b70d1" class="color000 svgShape"></path><path d="m21.25 23h-18.5c-1.517 0-2.75-1.233-2.75-2.75v-16.5c0-1.517 1.233-2.75 2.75-2.75h18.5c1.517 0 2.75 1.233 2.75 2.75v16.5c0 1.517-1.233 2.75-2.75 2.75zm-18.5-20.5c-.689 0-1.25.561-1.25 1.25v16.5c0 .689.561 1.25 1.25 1.25h18.5c.689 0 1.25-.561 1.25-1.25v-16.5c0-.689-.561-1.25-1.25-1.25z" fill="#1b70d1" class="color000 svgShape"></path><path d="m23.25 6h-22.5c-.414 0-.75-.336-.75-.75s.336-.75.75-.75h22.5c.414 0 .75.336.75.75s-.336.75-.75.75z" fill="#1b70d1" class="color000 svgShape"></path></svg></g></svg>