<svg id="Layer" enable-background="new 0 0 64 64" height="512" viewBox="0 0 64 64" width="512" xmlns="http://www.w3.org/2000/svg"><path d="m41 26c-3.309 0-6 2.691-6 6s2.691 6 6 6 6-2.691 6-6-2.691-6-6-6zm0 8c-1.103 0-2-.897-2-2s.897-2 2-2 2 .897 2 2-.897 2-2 2z"/><path d="m23 26c-3.309 0-6 2.691-6 6s2.691 6 6 6 6-2.691 6-6-2.691-6-6-6zm0 8c-1.103 0-2-.897-2-2s.897-2 2-2 2 .897 2 2-.897 2-2 2z"/><path d="m51.303 19.347-11.01-2.44c-5.335-1.183-11.058-1.226-16.585 0l-11.015 2.441c-2.763.619-4.693 3.03-4.693 5.862v14.29c0 2.832 1.93 5.243 4.697 5.863l11.036 2.445.711.15c.618.127 1.26-.043 1.732-.462l4.32-3.83c.03-.027.059-.054.087-.083.781-.78 2.051-.78 2.832 0 .028.028.057.056.087.083l4.32 3.83c.37.328.844.504 1.328.504.135 0 .271-.014.406-.042l11.752-2.597c2.762-.618 4.692-3.029 4.692-5.861v-14.29c0-2.832-1.93-5.243-4.697-5.863zm.697 20.153c0 .946-.645 1.752-1.563 1.958l-10.717 2.375-3.523-3.123c-2.328-2.279-6.066-2.279-8.395 0l-3.523 3.123-10.712-2.374c-.922-.207-1.567-1.013-1.567-1.959v-14.29c0-.946.645-1.752 1.563-1.958l11.011-2.44c4.768-1.057 9.892-1.1 14.854 0l11.005 2.439c.922.207 1.567 1.013 1.567 1.959z"/></svg>